<?xml version="1.0" standalone="no"?><!DOCTYPE svg PUBLIC "-//W3C//DTD SVG 1.1//EN" "http://www.w3.org/Graphics/SVG/1.1/DTD/svg11.dtd"><svg t="1700190120078" class="icon" viewBox="0 0 1024 1024" version="1.1" xmlns="http://www.w3.org/2000/svg" p-id="986" xmlns:xlink="http://www.w3.org/1999/xlink" width="200" height="200"><path d="M509.551 955.629c-247.924 0-449.606-201.686-449.606-449.61 0-247.924 201.683-449.608 449.606-449.608 247.93 0 449.613 201.684 449.613 449.608C959.164 753.945 757.48 955.629 509.551 955.629L509.551 955.629zM509.551 107.93c-218.958 0-397.088 178.13-397.088 397.089 0 218.924 178.13 397.091 397.088 397.091 218.928 0 397.095-178.167 397.095-397.091C906.641 286.06 728.478 107.93 509.551 107.93L509.551 107.93z" fill="#000000" p-id="987"></path><path d="M288.445 517.02l1 1c0.667 2 1.5 3.833 2.5 5.5s2.167 3.167 3.5 4.5l0 0 159 159c6.667 6.667 14.333 10 23 10s16.167-3.167 22.5-9.5 9.5-13.833 9.5-22.5-3-16.333-9-23l-104-103 305 0c9.333 0 17-3.167 23-9.5s9-13.833 9-22.5c0-6-1.333-11.5-4-16.5s-6.5-8.834-11.5-11.5-10.5-4-16.5-4l-306 0 106-105c6-6.667 9-14.333 9-23s-3-16.167-9-22.5-13.667-9.5-23-9.5c-8.667 0.667-16 3.667-22 9l-161 159C285.445 493.02 283.112 504.354 288.445 517.02z" fill="#000000" p-id="988"></path></svg>